<svg width="300" height="300" viewBox="0 0 300 300" fill="none" xmlns="http://www.w3.org/2000/svg">
<rect width="300" height="300" rx="5" fill="#C4C4C4"/>
<path d="M184.375 106.25H115.625C110.449 106.25 106.25 110.449 106.25 115.625V184.375C106.25 189.551 110.449 193.75 115.625 193.75H184.375C189.551 193.75 193.75 189.551 193.75 184.375V115.625C193.75 110.449 189.551 106.25 184.375 106.25ZM178.125 155.469C178.125 156.758 177.07 157.812 175.781 157.812H157.812V175.781C157.812 177.07 156.758 178.125 155.469 178.125H144.531C143.242 178.125 142.188 177.07 142.188 175.781V157.812H124.219C122.93 157.812 121.875 156.758 121.875 155.469V144.531C121.875 143.242 122.93 142.188 124.219 142.188H142.188V124.219C142.188 122.93 143.242 121.875 144.531 121.875H155.469C156.758 121.875 157.812 122.93 157.812 124.219V142.188H175.781C177.07 142.188 178.125 143.242 178.125 144.531V155.469Z" fill="white"/>
</svg>
